<?xml version="1.0" encoding="utf-8"?>
<!-- Generator: Adobe Illustrator 16.0.0, SVG Export Plug-In . SVG Version: 6.00 Build 0)  -->
<!DOCTYPE svg PUBLIC "-//W3C//DTD SVG 1.0//EN" "http://www.w3.org/TR/2001/REC-SVG-20010904/DTD/svg10.dtd">
<svg version="1.0" id="Layer_1" xmlns="http://www.w3.org/2000/svg" xmlns:xlink="http://www.w3.org/1999/xlink" x="0px" y="0px"
	 width="500px" height="540px" viewBox="0 0 500 540" enable-background="new 0 0 500 540" xml:space="preserve">
<g>
	<path fill="#9A8448" d="M405.219,0.505c30.588,55.189,48.588,116.976,51.287,182.362c0.602,21.298,0.602,21.298,0.602,21.298
		c-1.5,49.488-11.996,98.377-30.596,142.167c-21.596,51.591-54.889,99.58-97.479,139.171
		c-22.799,20.698-48.588,38.996-74.984,53.992c-0.898,0-0.898,0-0.898,0c-29.994-16.5-57.588-36.594-83.384-59.685
		c-46.191-41.095-82.482-94.185-107.377-149.676c-5.099-11.395-9.297-23.395-13.198-35.389
		c14.997-8.099,30.594-19.796,36.294-36.894c5.697-17.995,5.697-40.49-6.901-55.189c-7.796-8.396-18.595-11.997-29.994-12.595
		c-2.099-22.796-2.099-22.796-2.099-22.796c-3.598-41.692-3.598-41.692-3.598-41.692c0-0.898,0-0.898,0-0.898
		c23.694-5.1,45.589-15.298,64.187-31.195c25.795-21.895,44.09-52.789,52.489-84.883c14.697,6,28.793,12.599,44.09,16.797
		c24.895,6.6,51.289,10.197,78.285,8.699c27.293-1.201,53.09-6.601,77.684-14.997c15.598-5.099,30.293-11.697,44.992-18.598"/>
	<path fill="#FFFFFF" d="M397.418,22.402c14.4,29.093,25.795,59.688,32.697,91.48c-1.807,5.699-4.5,11.096-6.902,16.796
		c-26.391,57.288-61.783,110.978-102.879,161.368c-20.396,23.091-20.396,23.091-20.396,23.091
		c-43.189,47.695-94.177,89.386-147.867,122.68c-0.601,0-0.601,0-0.601,0c-23.694-26.098-43.49-55.486-59.988-85.782
		c1.501-1.803,4.201-2.7,6-4.199c46.49-29.096,89.381-65.689,126.273-108.278c40.492-45.291,74.083-96.282,100.183-149.071
		c12.291-26.993,12.291-26.993,12.291-26.993c3.301-7.198,6.6-14.396,9.305-21.896c5.994-2.399,12.596-3.601,18.59-6
		c11.404-3.598,22.496-8.099,33.295-13.495"/>
	<path fill="#EE3D43" d="M317.033,47.295c10.5-1.799,10.5-1.799,10.5-1.799c0.299,0.3,0.299,0.3,0.299,0.3
		c-30.59,72.886-75.283,143.071-131.672,201.561c-32.694,35.093-70.784,65.984-111.276,90.882c-0.601,0-0.601,0-0.601,0
		c-5.7-11.999-10.798-23.999-14.997-36.594c0-0.303,0-0.303,0-0.303c20.996-11.394,34.492-34.49,36.294-57.887
		c2.399-25.795-6.3-52.188-29.697-63.287c-3.598-1.799-7.498-3.599-11.396-4.499c-0.3-1.799-0.3-1.799-0.3-1.799
		c-3.598-36.291-3.598-36.291-3.598-36.291c0.298-0.303,0.298-0.303,0.298-0.303c33.894-9.896,64.188-32.094,85.483-61.787
		c9.897-13.495,17.396-28.792,23.696-43.789C214.457,50.295,266.643,55.994,317.033,47.295"/>
	<path fill="#9A8448" d="M345.533,98.886c-1.504,3.898-2.104,7.799-0.902,11.997c5.697,17.996,5.697,17.996,5.697,17.996
		c0.303,0.301,0.303,0.301,0.303,0.301c16.197,1.198,32.395,1.499,48.588,2.7c1.201-0.601,2.396-2.1,3.301-3.301
		c2.396,1.201,4.494,2.399,6.896,3.898c-0.303,0.601-0.303,0.601-0.303,0.601c-16.191,28.495-16.191,28.495-16.191,28.495
		c-0.299,0.3-0.299,1.799-1.5,1.198c-6-3.298-6-3.298-6-3.298c-0.297-1.801,1.197-3,0.898-4.501
		c-28.494-2.697-28.494-2.697-28.494-2.697c0,0.301,0,0.301,0,0.301c0.6,2.396,1.504,4.498,2.703,6.598
		c5.693,3.297,11.697,6.598,17.693,10.198c1.504-1.501,2.4-3.301,3.898-4.499c6.598,3.598,6.598,3.598,6.598,3.598
		c0,0.301,0,0.301,0,0.301c-17.395,31.192-17.395,31.192-17.395,31.192c-0.898-0.298-0.898-0.298-0.898-0.298
		c-6-3.301-6-3.301-6-3.301c0.303-2.099,1.498-4.198,2.1-6.297c-4.199-2.401-4.199-2.401-4.199-2.401
		c-29.393-16.497-29.393-16.497-29.393-16.497c-6.898-4.197-13.801-7.498-20.693-11.696c-1.504,1.799-2.705,3.598-3.906,5.399
		c-0.293,0-0.293,0-0.293,0c-2.104-1.501-4.5-2.402-6.6-3.9c0.898-1.499,0.898-1.499,0.898-1.499
		c17.398-30.895,17.398-30.895,17.398-30.895c2.1,1.201,4.496,2.7,6.893,3.898c-0.596,2.102-1.797,4.2-2.396,6.3
		c24.594,14.097,24.594,14.097,24.594,14.097c0.602,0,0.602-0.898,0.299-1.199c-2.998-8.999-5.996-17.996-8.695-26.993
		c-0.602-1.502-2.104-3.001-3.598-3.301c-3.299-0.601-5.398,2.7-6.6,5.1c-2.402-1.201-4.799-2.399-6.904-3.898
		c0-0.601,0-0.601,0-0.601c15.301-26.996,15.301-26.996,15.301-26.996C341.031,96.187,343.131,97.685,345.533,98.886"/>
	<path fill="#007AC2" d="M435.516,141.477c2.396,16.496,3.592,33.593,4.197,50.988c0.596,39.895-5.701,79.186-17.398,116.678
		c-14.693,46.191-38.391,89.084-69.889,126.873c-27.289,33.593-61.783,62.99-98.979,84.285c-0.6,0-0.6,0-0.6,0
		c-32.991-19.801-63.286-43.195-90.279-71.09c0-0.297,0-0.297,0-0.297c69.285-43.189,132.873-100.18,184.162-165.869
		c34.488-44.688,65.088-92.379,88.482-142.168"/>
	<path fill="#9A8448" d="M325.137,202.964c1.494,2.102,2.1,6.3,0.299,8.699c-1.201,2.699-3.598,4.198-6.6,4.498
		c-3.297,0.301-6-0.9-7.797-3.3c-1.803-2.399-2.402-5.997-1.201-8.696c1.498-3.001,4.5-5.1,7.801-5.1
		C320.637,198.765,323.633,200.264,325.137,202.964"/>
	<path fill="#9A8448" d="M281.045,231.158c-0.6,0.301-0.6,0.301-0.6,0.301c-8.998-2.4-20.998-3.301-27.598,4.498
		c-2.096,2.399-3.899,6-2.998,9.298c0.601,2.398,2.699,4.2,4.798,4.799c4.199,0.9,7.5-1.199,10.799-2.697
		c11.994-6.601,26.396-17.697,40.787-9.3c9.598,5.398,16.805,16.197,14.699,27.594c-1.801,10.799-9.598,20.396-18.594,25.796
		c-2.701,2.099-6.602,3.598-6.602,7.797c-0.297,1.503,0,2.704-0.297,4.198c-24.297-13.493-24.297-13.493-24.297-13.493
		c0-0.602,0-0.602,0-0.602c2.998-6.6,2.998-6.6,2.998-6.6c10.799,2.699,25.496,4.203,32.697-6.298
		c2.1-3.002,4.199-6.598,3.598-10.498c-0.6-2.7-3.299-4.799-5.697-6c-6.6-2.099-12.301,2.401-17.998,5.1
		c-9.598,5.701-21.592,12.897-32.996,7.195c-8.695-4.797-15.893-13.794-15.295-24.292c0.9-10.498,7.798-19.495,16.797-24.895
		c2.701-1.499,6.299-4.198,5.996-8.099c0-3.298,0-3.298,0-3.298c22.797,13.198,22.797,13.198,22.797,13.198"/>
	<path fill="#9A8448" d="M248.649,293.844c1.802,2.401,2.701,5.701,1.501,8.698c-1.201,3.301-4.2,5.399-7.498,5.702
		c-3.9,0.299-7.198-2.099-8.699-5.101c-0.898-2.699-0.898-6.596,1.201-8.997c2.399-2.7,5.697-3.604,8.997-2.998
		C245.95,291.744,247.451,292.643,248.649,293.844"/>
	<path fill="#9A8448" d="M226.454,334.635c4.201,9.599,4.201,22.799-2.099,31.797c-3.3,5.398-7.499,9.895-12.298,13.795
		c-26.393,20.694-26.393,20.694-26.393,20.694c-0.6-0.299-0.6-0.299-0.6-0.299c-4.201-5.696-4.201-5.696-4.201-5.696
		c0.9-1.801,3-2.997,4.201-4.803c-2.7-3.594-2.7-3.594-2.7-3.594c-26.396-32.396-26.396-32.396-26.396-32.396
		c-10.496-12.595-10.496-12.595-10.496-12.595c-1.801,0.897-3.601,1.796-5.7,3.3c-1.499-1.807-3.3-3.906-5.099-6.005
		c32.994-25.796,32.994-25.796,32.994-25.796c9.898-7.195,24.895-8.693,35.991-2.997
		C213.856,315.138,221.955,324.442,226.454,334.635"/>
	<path fill="#FFFFFF" d="M195.262,333.436c6.598,8.4,13.796,16.797,16.496,27.298c0.3,4.497-0.3,9.295-3.898,11.995
		c-3.3,2.699-3.3,2.699-3.3,2.699c-0.601-0.595-0.601-0.595-0.601-0.595c-28.192-34.798-28.192-34.798-28.192-34.798
		c-11.099-13.796-11.099-13.796-11.099-13.796c4.198-4.198,10.499-6.898,16.496-4.198
		C186.862,324.141,191.061,329.236,195.262,333.436"/>
</g>
</svg>
